<svg width="1023" height="1080" viewBox="0 0 1023 1080" fill="none" xmlns="http://www.w3.org/2000/svg">
<g clip-path="url(#clip0_3_704)">
<path d="M1 48C1 21.4903 22.4903 0 49 0H1024V1080H49C22.4903 1080 1 1058.51 1 1032V48Z" fill="#121212"/>
<mask id="mask0_3_704" style="mask-type:alpha" maskUnits="userSpaceOnUse" x="-174" y="643" width="1382" height="762">
<rect x="-173.178" y="643.6" width="1380.23" height="760.537" fill="#D9D9D9"/>
</mask>
<g mask="url(#mask0_3_704)">
</g>
<g opacity="0.6" filter="url(#filter0_iiiif_3_704)">
<g clip-path="url(#clip1_3_704)">
<rect x="-184" y="643.6" width="838.517" height="838.517" rx="419.258" fill="#B9B9B9"/>
<g style="mix-blend-mode:screen" filter="url(#filter1_f_3_704)">
<path d="M60.5668 1062.86L680.72 442.705L938.389 621.764L584.64 1137.1L680.72 1683.01L60.5668 1062.86Z" fill="#DD9FED"/>
</g>
<g style="mix-blend-mode:screen" filter="url(#filter2_f_3_704)">
<path d="M-144.802 1906.05L-371.793 1058.91L-87.8898 925.287L181.532 1489.31L702.343 1679.06L-144.802 1906.05Z" fill="#050024"/>
</g>
</g>
<rect x="-181.816" y="645.783" width="834.15" height="834.15" rx="417.075" stroke="white" stroke-opacity="0.4" stroke-width="4.36728" style="mix-blend-mode:soft-light"/>
</g>
<circle cx="516.938" cy="1079.5" r="601.254" fill="url(#paint0_radial_3_704)" fill-opacity="0.02" stroke="white" stroke-opacity="0.1" stroke-width="1.21673" stroke-linecap="round"/>
<circle cx="516.938" cy="1079.5" r="437.275" fill="url(#paint1_radial_3_704)" fill-opacity="0.02" stroke="white" stroke-opacity="0.1" stroke-width="1.21673" stroke-linecap="round"/>
<circle cx="516.939" cy="1079.5" r="273.297" fill="url(#paint2_radial_3_704)" fill-opacity="0.02" stroke="white" stroke-opacity="0.1" stroke-width="1.21673" stroke-linecap="round"/>
<path d="M379.02 259.727C379.02 264.636 378.134 268.879 376.361 272.455C374.589 276.03 372.157 278.788 369.066 280.727C365.975 282.667 362.445 283.636 358.475 283.636C354.505 283.636 350.975 282.667 347.884 280.727C344.793 278.788 342.361 276.03 340.589 272.455C338.816 268.879 337.929 264.636 337.929 259.727C337.929 254.818 338.816 250.576 340.589 247C342.361 243.424 344.793 240.667 347.884 238.727C350.975 236.788 354.505 235.818 358.475 235.818C362.445 235.818 365.975 236.788 369.066 238.727C372.157 240.667 374.589 243.424 376.361 247C378.134 250.576 379.02 254.818 379.02 259.727ZM373.566 259.727C373.566 255.697 372.892 252.295 371.543 249.523C370.21 246.75 368.399 244.652 366.111 243.227C363.839 241.803 361.293 241.091 358.475 241.091C355.657 241.091 353.104 241.803 350.816 243.227C348.543 244.652 346.732 246.75 345.384 249.523C344.051 252.295 343.384 255.697 343.384 259.727C343.384 263.758 344.051 267.159 345.384 269.932C346.732 272.705 348.543 274.803 350.816 276.227C353.104 277.652 355.657 278.364 358.475 278.364C361.293 278.364 363.839 277.652 366.111 276.227C368.399 274.803 370.21 272.705 371.543 269.932C372.892 267.159 373.566 263.758 373.566 259.727ZM401.378 283V236.455H429.287V241.455H407.014V257.182H427.196V262.182H407.014V283H401.378ZM455.465 268.727V248.091H460.829V283H455.465V277.091H455.102C454.284 278.864 453.011 280.371 451.284 281.614C449.556 282.841 447.374 283.455 444.738 283.455C442.556 283.455 440.617 282.977 438.92 282.023C437.223 281.053 435.89 279.598 434.92 277.659C433.95 275.705 433.465 273.242 433.465 270.273V248.091H438.829V269.909C438.829 272.455 439.541 274.485 440.965 276C442.405 277.515 444.238 278.273 446.465 278.273C447.799 278.273 449.155 277.932 450.534 277.25C451.927 276.568 453.094 275.523 454.034 274.114C454.988 272.705 455.465 270.909 455.465 268.727ZM483.275 248.091V252.636H465.184V248.091H483.275ZM470.456 239.727H475.82V273C475.82 274.515 476.04 275.652 476.479 276.409C476.934 277.152 477.51 277.652 478.206 277.909C478.919 278.152 479.669 278.273 480.456 278.273C481.047 278.273 481.532 278.242 481.911 278.182C482.29 278.106 482.593 278.045 482.82 278L483.911 282.818C483.547 282.955 483.04 283.091 482.388 283.227C481.737 283.379 480.911 283.455 479.911 283.455C478.396 283.455 476.911 283.129 475.456 282.477C474.017 281.826 472.82 280.833 471.866 279.5C470.926 278.167 470.456 276.485 470.456 274.455V239.727ZM510.783 268.727V248.091H516.146V283H510.783V277.091H510.419C509.601 278.864 508.328 280.371 506.601 281.614C504.874 282.841 502.692 283.455 500.056 283.455C497.874 283.455 495.934 282.977 494.237 282.023C492.54 281.053 491.207 279.598 490.237 277.659C489.268 275.705 488.783 273.242 488.783 270.273V248.091H494.146V269.909C494.146 272.455 494.859 274.485 496.283 276C497.722 277.515 499.556 278.273 501.783 278.273C503.116 278.273 504.472 277.932 505.851 277.25C507.245 276.568 508.412 275.523 509.351 274.114C510.306 272.705 510.783 270.909 510.783 268.727ZM523.41 283V248.091H528.592V253.364H528.956C529.592 251.636 530.744 250.235 532.41 249.159C534.077 248.083 535.956 247.545 538.047 247.545C538.441 247.545 538.933 247.553 539.524 247.568C540.115 247.583 540.562 247.606 540.865 247.636V253.091C540.683 253.045 540.266 252.977 539.615 252.886C538.979 252.78 538.304 252.727 537.592 252.727C535.895 252.727 534.38 253.083 533.047 253.795C531.729 254.492 530.683 255.462 529.91 256.705C529.153 257.932 528.774 259.333 528.774 260.909V283H523.41ZM557.782 283.727C554.631 283.727 551.865 282.977 549.487 281.477C547.123 279.977 545.275 277.879 543.941 275.182C542.623 272.485 541.964 269.333 541.964 265.727C541.964 262.091 542.623 258.917 543.941 256.205C545.275 253.492 547.123 251.386 549.487 249.886C551.865 248.386 554.631 247.636 557.782 247.636C560.934 247.636 563.691 248.386 566.055 249.886C568.434 251.386 570.282 253.492 571.6 256.205C572.934 258.917 573.6 262.091 573.6 265.727C573.6 269.333 572.934 272.485 571.6 275.182C570.282 277.879 568.434 279.977 566.055 281.477C563.691 282.977 560.934 283.727 557.782 283.727ZM557.782 278.909C560.176 278.909 562.146 278.295 563.691 277.068C565.237 275.841 566.381 274.227 567.123 272.227C567.865 270.227 568.237 268.061 568.237 265.727C568.237 263.394 567.865 261.22 567.123 259.205C566.381 257.189 565.237 255.561 563.691 254.318C562.146 253.076 560.176 252.455 557.782 252.455C555.388 252.455 553.419 253.076 551.873 254.318C550.328 255.561 549.184 257.189 548.441 259.205C547.699 261.22 547.328 263.394 547.328 265.727C547.328 268.061 547.699 270.227 548.441 272.227C549.184 274.227 550.328 275.841 551.873 277.068C553.419 278.295 555.388 278.909 557.782 278.909ZM607.85 283.727C604.941 283.727 602.372 282.992 600.145 281.523C597.918 280.038 596.175 277.947 594.918 275.25C593.66 272.538 593.031 269.333 593.031 265.636C593.031 261.97 593.66 258.788 594.918 256.091C596.175 253.394 597.925 251.311 600.168 249.841C602.41 248.371 605.001 247.636 607.941 247.636C610.213 247.636 612.009 248.015 613.327 248.773C614.66 249.515 615.675 250.364 616.372 251.318C617.085 252.258 617.638 253.03 618.031 253.636H618.486V236.455H623.85V283H618.668V277.636H618.031C617.638 278.273 617.077 279.076 616.35 280.045C615.622 281 614.585 281.856 613.236 282.614C611.888 283.356 610.092 283.727 607.85 283.727ZM608.577 278.909C610.728 278.909 612.547 278.348 614.031 277.227C615.516 276.091 616.645 274.523 617.418 272.523C618.191 270.508 618.577 268.182 618.577 265.545C618.577 262.939 618.198 260.659 617.441 258.705C616.683 256.735 615.562 255.205 614.077 254.114C612.592 253.008 610.759 252.455 608.577 252.455C606.304 252.455 604.41 253.038 602.895 254.205C601.395 255.356 600.266 256.924 599.509 258.909C598.766 260.879 598.395 263.091 598.395 265.545C598.395 268.03 598.774 270.288 599.531 272.318C600.304 274.333 601.441 275.939 602.941 277.136C604.456 278.318 606.335 278.909 608.577 278.909ZM642.131 283.818C639.918 283.818 637.911 283.402 636.108 282.568C634.305 281.72 632.873 280.5 631.812 278.909C630.752 277.303 630.221 275.364 630.221 273.091C630.221 271.091 630.615 269.47 631.403 268.227C632.191 266.97 633.244 265.985 634.562 265.273C635.881 264.561 637.335 264.03 638.926 263.682C640.532 263.318 642.146 263.03 643.767 262.818C645.888 262.545 647.608 262.341 648.926 262.205C650.259 262.053 651.229 261.803 651.835 261.455C652.456 261.106 652.767 260.5 652.767 259.636V259.455C652.767 257.212 652.153 255.47 650.926 254.227C649.714 252.985 647.873 252.364 645.403 252.364C642.843 252.364 640.835 252.924 639.381 254.045C637.926 255.167 636.903 256.364 636.312 257.636L631.221 255.818C632.131 253.697 633.343 252.045 634.858 250.864C636.388 249.667 638.055 248.833 639.858 248.364C641.676 247.879 643.464 247.636 645.221 247.636C646.343 247.636 647.631 247.773 649.085 248.045C650.555 248.303 651.971 248.841 653.335 249.659C654.714 250.477 655.858 251.712 656.767 253.364C657.676 255.015 658.131 257.227 658.131 260V283H652.767V278.273H652.494C652.131 279.03 651.524 279.841 650.676 280.705C649.828 281.568 648.699 282.303 647.29 282.909C645.881 283.515 644.161 283.818 642.131 283.818ZM642.949 279C645.07 279 646.858 278.583 648.312 277.75C649.782 276.917 650.888 275.841 651.631 274.523C652.388 273.205 652.767 271.818 652.767 270.364V265.455C652.54 265.727 652.04 265.977 651.267 266.205C650.509 266.417 649.631 266.606 648.631 266.773C647.646 266.924 646.684 267.061 645.744 267.182C644.82 267.288 644.07 267.379 643.494 267.455C642.1 267.636 640.797 267.932 639.585 268.341C638.388 268.735 637.418 269.333 636.676 270.136C635.949 270.924 635.585 272 635.585 273.364C635.585 275.227 636.274 276.636 637.653 277.591C639.047 278.53 640.812 279 642.949 279ZM690.088 255.909L685.269 257.273C684.966 256.47 684.519 255.689 683.929 254.932C683.353 254.159 682.565 253.523 681.565 253.023C680.565 252.523 679.285 252.273 677.724 252.273C675.588 252.273 673.807 252.765 672.383 253.75C670.974 254.72 670.269 255.955 670.269 257.455C670.269 258.788 670.754 259.841 671.724 260.614C672.694 261.386 674.209 262.03 676.269 262.545L681.451 263.818C684.572 264.576 686.898 265.735 688.429 267.295C689.959 268.841 690.724 270.833 690.724 273.273C690.724 275.273 690.148 277.061 688.997 278.636C687.86 280.212 686.269 281.455 684.224 282.364C682.179 283.273 679.8 283.727 677.088 283.727C673.527 283.727 670.58 282.955 668.247 281.409C665.913 279.864 664.436 277.606 663.815 274.636L668.906 273.364C669.391 275.242 670.307 276.652 671.656 277.591C673.019 278.53 674.8 279 676.997 279C679.497 279 681.482 278.47 682.951 277.409C684.436 276.333 685.179 275.045 685.179 273.545C685.179 272.333 684.754 271.318 683.906 270.5C683.057 269.667 681.754 269.045 679.997 268.636L674.179 267.273C670.982 266.515 668.633 265.341 667.133 263.75C665.648 262.144 664.906 260.136 664.906 257.727C664.906 255.758 665.459 254.015 666.565 252.5C667.686 250.985 669.209 249.795 671.133 248.932C673.072 248.068 675.269 247.636 677.724 247.636C681.179 247.636 683.891 248.394 685.86 249.909C687.845 251.424 689.254 253.424 690.088 255.909ZM318.103 321H312.467C312.134 319.379 311.55 317.955 310.717 316.727C309.899 315.5 308.899 314.47 307.717 313.636C306.55 312.788 305.255 312.152 303.831 311.727C302.406 311.303 300.922 311.091 299.376 311.091C296.558 311.091 294.005 311.803 291.717 313.227C289.444 314.652 287.634 316.75 286.285 319.523C284.952 322.295 284.285 325.697 284.285 329.727C284.285 333.758 284.952 337.159 286.285 339.932C287.634 342.705 289.444 344.803 291.717 346.227C294.005 347.652 296.558 348.364 299.376 348.364C300.922 348.364 302.406 348.152 303.831 347.727C305.255 347.303 306.55 346.674 307.717 345.841C308.899 344.992 309.899 343.955 310.717 342.727C311.55 341.485 312.134 340.061 312.467 338.455H318.103C317.679 340.833 316.906 342.962 315.785 344.841C314.664 346.72 313.27 348.318 311.603 349.636C309.937 350.939 308.066 351.932 305.99 352.614C303.929 353.295 301.725 353.636 299.376 353.636C295.406 353.636 291.876 352.667 288.785 350.727C285.694 348.788 283.262 346.03 281.49 342.455C279.717 338.879 278.831 334.636 278.831 329.727C278.831 324.818 279.717 320.576 281.49 317C283.262 313.424 285.694 310.667 288.785 308.727C291.876 306.788 295.406 305.818 299.376 305.818C301.725 305.818 303.929 306.159 305.99 306.841C308.066 307.523 309.937 308.523 311.603 309.841C313.27 311.144 314.664 312.735 315.785 314.614C316.906 316.477 317.679 318.606 318.103 321ZM334.197 353.818C331.985 353.818 329.977 353.402 328.174 352.568C326.371 351.72 324.939 350.5 323.879 348.909C322.818 347.303 322.288 345.364 322.288 343.091C322.288 341.091 322.682 339.47 323.47 338.227C324.257 336.97 325.31 335.985 326.629 335.273C327.947 334.561 329.401 334.03 330.992 333.682C332.598 333.318 334.212 333.03 335.833 332.818C337.954 332.545 339.674 332.341 340.992 332.205C342.326 332.053 343.295 331.803 343.901 331.455C344.523 331.106 344.833 330.5 344.833 329.636V329.455C344.833 327.212 344.22 325.47 342.992 324.227C341.78 322.985 339.939 322.364 337.47 322.364C334.909 322.364 332.901 322.924 331.447 324.045C329.992 325.167 328.97 326.364 328.379 327.636L323.288 325.818C324.197 323.697 325.409 322.045 326.924 320.864C328.454 319.667 330.121 318.833 331.924 318.364C333.742 317.879 335.53 317.636 337.288 317.636C338.409 317.636 339.697 317.773 341.151 318.045C342.621 318.303 344.038 318.841 345.401 319.659C346.78 320.477 347.924 321.712 348.833 323.364C349.742 325.015 350.197 327.227 350.197 330V353H344.833V348.273H344.56C344.197 349.03 343.591 349.841 342.742 350.705C341.894 351.568 340.765 352.303 339.356 352.909C337.947 353.515 336.227 353.818 334.197 353.818ZM335.015 349C337.136 349 338.924 348.583 340.379 347.75C341.848 346.917 342.954 345.841 343.697 344.523C344.454 343.205 344.833 341.818 344.833 340.364V335.455C344.606 335.727 344.106 335.977 343.333 336.205C342.576 336.417 341.697 336.606 340.697 336.773C339.712 336.924 338.75 337.061 337.81 337.182C336.886 337.288 336.136 337.379 335.56 337.455C334.167 337.636 332.863 337.932 331.651 338.341C330.454 338.735 329.485 339.333 328.742 340.136C328.015 340.924 327.651 342 327.651 343.364C327.651 345.227 328.341 346.636 329.72 347.591C331.113 348.53 332.879 349 335.015 349ZM382.154 325.909L377.336 327.273C377.033 326.47 376.586 325.689 375.995 324.932C375.419 324.159 374.631 323.523 373.631 323.023C372.631 322.523 371.351 322.273 369.79 322.273C367.654 322.273 365.874 322.765 364.449 323.75C363.04 324.72 362.336 325.955 362.336 327.455C362.336 328.788 362.821 329.841 363.79 330.614C364.76 331.386 366.275 332.03 368.336 332.545L373.517 333.818C376.639 334.576 378.964 335.735 380.495 337.295C382.025 338.841 382.79 340.833 382.79 343.273C382.79 345.273 382.214 347.061 381.063 348.636C379.927 350.212 378.336 351.455 376.29 352.364C374.245 353.273 371.866 353.727 369.154 353.727C365.593 353.727 362.646 352.955 360.313 351.409C357.98 349.864 356.502 347.606 355.881 344.636L360.972 343.364C361.457 345.242 362.374 346.652 363.722 347.591C365.086 348.53 366.866 349 369.063 349C371.563 349 373.548 348.47 375.017 347.409C376.502 346.333 377.245 345.045 377.245 343.545C377.245 342.333 376.821 341.318 375.972 340.5C375.124 339.667 373.821 339.045 372.063 338.636L366.245 337.273C363.048 336.515 360.699 335.341 359.199 333.75C357.714 332.144 356.972 330.136 356.972 327.727C356.972 325.758 357.525 324.015 358.631 322.5C359.752 320.985 361.275 319.795 363.199 318.932C365.139 318.068 367.336 317.636 369.79 317.636C373.245 317.636 375.957 318.394 377.927 319.909C379.911 321.424 381.321 323.424 382.154 325.909ZM398.577 353.818C396.365 353.818 394.357 353.402 392.554 352.568C390.751 351.72 389.319 350.5 388.259 348.909C387.198 347.303 386.668 345.364 386.668 343.091C386.668 341.091 387.062 339.47 387.85 338.227C388.637 336.97 389.69 335.985 391.009 335.273C392.327 334.561 393.781 334.03 395.372 333.682C396.978 333.318 398.592 333.03 400.213 332.818C402.334 332.545 404.054 332.341 405.372 332.205C406.706 332.053 407.675 331.803 408.281 331.455C408.903 331.106 409.213 330.5 409.213 329.636V329.455C409.213 327.212 408.6 325.47 407.372 324.227C406.16 322.985 404.319 322.364 401.85 322.364C399.289 322.364 397.281 322.924 395.827 324.045C394.372 325.167 393.35 326.364 392.759 327.636L387.668 325.818C388.577 323.697 389.789 322.045 391.304 320.864C392.834 319.667 394.501 318.833 396.304 318.364C398.122 317.879 399.91 317.636 401.668 317.636C402.789 317.636 404.077 317.773 405.531 318.045C407.001 318.303 408.418 318.841 409.781 319.659C411.16 320.477 412.304 321.712 413.213 323.364C414.122 325.015 414.577 327.227 414.577 330V353H409.213V348.273H408.94C408.577 349.03 407.971 349.841 407.122 350.705C406.274 351.568 405.145 352.303 403.736 352.909C402.327 353.515 400.607 353.818 398.577 353.818ZM399.395 349C401.516 349 403.304 348.583 404.759 347.75C406.228 346.917 407.334 345.841 408.077 344.523C408.834 343.205 409.213 341.818 409.213 340.364V335.455C408.986 335.727 408.486 335.977 407.713 336.205C406.956 336.417 406.077 336.606 405.077 336.773C404.092 336.924 403.13 337.061 402.19 337.182C401.266 337.288 400.516 337.379 399.94 337.455C398.547 337.636 397.243 337.932 396.031 338.341C394.834 338.735 393.865 339.333 393.122 340.136C392.395 340.924 392.031 342 392.031 343.364C392.031 345.227 392.721 346.636 394.1 347.591C395.493 348.53 397.259 349 399.395 349ZM446.534 325.909L441.716 327.273C441.413 326.47 440.966 325.689 440.375 324.932C439.799 324.159 439.011 323.523 438.011 323.023C437.011 322.523 435.731 322.273 434.17 322.273C432.034 322.273 430.254 322.765 428.829 323.75C427.42 324.72 426.716 325.955 426.716 327.455C426.716 328.788 427.201 329.841 428.17 330.614C429.14 331.386 430.655 332.03 432.716 332.545L437.897 333.818C441.019 334.576 443.344 335.735 444.875 337.295C446.405 338.841 447.17 340.833 447.17 343.273C447.17 345.273 446.594 347.061 445.443 348.636C444.307 350.212 442.716 351.455 440.67 352.364C438.625 353.273 436.246 353.727 433.534 353.727C429.973 353.727 427.026 352.955 424.693 351.409C422.36 349.864 420.882 347.606 420.261 344.636L425.352 343.364C425.837 345.242 426.754 346.652 428.102 347.591C429.466 348.53 431.246 349 433.443 349C435.943 349 437.928 348.47 439.397 347.409C440.882 346.333 441.625 345.045 441.625 343.545C441.625 342.333 441.201 341.318 440.352 340.5C439.504 339.667 438.201 339.045 436.443 338.636L430.625 337.273C427.428 336.515 425.079 335.341 423.579 333.75C422.094 332.144 421.352 330.136 421.352 327.727C421.352 325.758 421.905 324.015 423.011 322.5C424.132 320.985 425.655 319.795 427.579 318.932C429.519 318.068 431.716 317.636 434.17 317.636C437.625 317.636 440.337 318.394 442.307 319.909C444.291 321.424 445.701 323.424 446.534 325.909ZM481.306 353.727C478.397 353.727 475.829 352.992 473.601 351.523C471.374 350.038 469.632 347.947 468.374 345.25C467.117 342.538 466.488 339.333 466.488 335.636C466.488 331.97 467.117 328.788 468.374 326.091C469.632 323.394 471.382 321.311 473.624 319.841C475.867 318.371 478.457 317.636 481.397 317.636C483.67 317.636 485.465 318.015 486.783 318.773C488.117 319.515 489.132 320.364 489.829 321.318C490.541 322.258 491.094 323.03 491.488 323.636H491.942V306.455H497.306V353H492.124V347.636H491.488C491.094 348.273 490.533 349.076 489.806 350.045C489.079 351 488.041 351.856 486.692 352.614C485.344 353.356 483.548 353.727 481.306 353.727ZM482.033 348.909C484.185 348.909 486.003 348.348 487.488 347.227C488.973 346.091 490.101 344.523 490.874 342.523C491.647 340.508 492.033 338.182 492.033 335.545C492.033 332.939 491.654 330.659 490.897 328.705C490.139 326.735 489.018 325.205 487.533 324.114C486.048 323.008 484.215 322.455 482.033 322.455C479.76 322.455 477.867 323.038 476.351 324.205C474.851 325.356 473.723 326.924 472.965 328.909C472.223 330.879 471.851 333.091 471.851 335.545C471.851 338.03 472.23 340.288 472.988 342.318C473.76 344.333 474.897 345.939 476.397 347.136C477.912 348.318 479.791 348.909 482.033 348.909ZM519.95 353.727C516.587 353.727 513.685 352.985 511.246 351.5C508.822 350 506.95 347.909 505.632 345.227C504.329 342.53 503.678 339.394 503.678 335.818C503.678 332.242 504.329 329.091 505.632 326.364C506.95 323.621 508.784 321.485 511.132 319.955C513.496 318.409 516.253 317.636 519.405 317.636C521.223 317.636 523.019 317.939 524.791 318.545C526.564 319.152 528.178 320.136 529.632 321.5C531.087 322.848 532.246 324.636 533.11 326.864C533.973 329.091 534.405 331.833 534.405 335.091V337.364H507.496V332.727H528.95C528.95 330.758 528.557 329 527.769 327.455C526.996 325.909 525.89 324.689 524.45 323.795C523.026 322.902 521.344 322.455 519.405 322.455C517.269 322.455 515.42 322.985 513.86 324.045C512.314 325.091 511.125 326.455 510.291 328.136C509.458 329.818 509.041 331.621 509.041 333.545V336.636C509.041 339.273 509.496 341.508 510.405 343.341C511.329 345.159 512.61 346.545 514.246 347.5C515.882 348.439 517.784 348.909 519.95 348.909C521.36 348.909 522.632 348.712 523.769 348.318C524.92 347.909 525.913 347.303 526.746 346.5C527.579 345.682 528.223 344.667 528.678 343.455L533.86 344.909C533.314 346.667 532.397 348.212 531.11 349.545C529.822 350.864 528.231 351.894 526.337 352.636C524.443 353.364 522.314 353.727 519.95 353.727ZM558.08 353H552.171L569.262 306.455H575.08L592.171 353H586.262L572.353 313.818H571.99L558.08 353ZM560.262 334.818H584.08V339.818H560.262V334.818ZM601.498 332V353H596.134V318.091H601.316V323.545H601.77C602.589 321.773 603.831 320.348 605.498 319.273C607.164 318.182 609.316 317.636 611.952 317.636C614.316 317.636 616.384 318.121 618.157 319.091C619.93 320.045 621.308 321.5 622.293 323.455C623.278 325.394 623.77 327.848 623.77 330.818V353H618.407V331.182C618.407 328.439 617.695 326.303 616.27 324.773C614.846 323.227 612.892 322.455 610.407 322.455C608.695 322.455 607.164 322.826 605.816 323.568C604.483 324.311 603.43 325.394 602.657 326.818C601.884 328.242 601.498 329.97 601.498 332ZM641.284 353.818C639.072 353.818 637.065 353.402 635.262 352.568C633.459 351.72 632.027 350.5 630.966 348.909C629.906 347.303 629.375 345.364 629.375 343.091C629.375 341.091 629.769 339.47 630.557 338.227C631.345 336.97 632.398 335.985 633.716 335.273C635.034 334.561 636.489 334.03 638.08 333.682C639.686 333.318 641.299 333.03 642.921 332.818C645.042 332.545 646.762 332.341 648.08 332.205C649.413 332.053 650.383 331.803 650.989 331.455C651.61 331.106 651.921 330.5 651.921 329.636V329.455C651.921 327.212 651.307 325.47 650.08 324.227C648.868 322.985 647.027 322.364 644.557 322.364C641.996 322.364 639.989 322.924 638.534 324.045C637.08 325.167 636.057 326.364 635.466 327.636L630.375 325.818C631.284 323.697 632.496 322.045 634.012 320.864C635.542 319.667 637.209 318.833 639.012 318.364C640.83 317.879 642.618 317.636 644.375 317.636C645.496 317.636 646.784 317.773 648.239 318.045C649.709 318.303 651.125 318.841 652.489 319.659C653.868 320.477 655.012 321.712 655.921 323.364C656.83 325.015 657.284 327.227 657.284 330V353H651.921V348.273H651.648C651.284 349.03 650.678 349.841 649.83 350.705C648.981 351.568 647.852 352.303 646.443 352.909C645.034 353.515 643.315 353.818 641.284 353.818ZM642.102 349C644.224 349 646.012 348.583 647.466 347.75C648.936 346.917 650.042 345.841 650.784 344.523C651.542 343.205 651.921 341.818 651.921 340.364V335.455C651.693 335.727 651.193 335.977 650.421 336.205C649.663 336.417 648.784 336.606 647.784 336.773C646.799 336.924 645.837 337.061 644.898 337.182C643.974 337.288 643.224 337.379 642.648 337.455C641.254 337.636 639.951 337.932 638.739 338.341C637.542 338.735 636.572 339.333 635.83 340.136C635.102 340.924 634.739 342 634.739 343.364C634.739 345.227 635.428 346.636 636.807 347.591C638.201 348.53 639.966 349 642.102 349ZM642.284 313.364L647.83 302.818H654.102L647.012 313.364H642.284ZM669.878 306.455V353H664.514V306.455H669.878ZM677.142 353V318.091H682.505V353H677.142ZM679.869 312.273C678.823 312.273 677.922 311.917 677.164 311.205C676.422 310.492 676.051 309.636 676.051 308.636C676.051 307.636 676.422 306.78 677.164 306.068C677.922 305.356 678.823 305 679.869 305C680.914 305 681.808 305.356 682.551 306.068C683.308 306.78 683.687 307.636 683.687 308.636C683.687 309.636 683.308 310.492 682.551 311.205C681.808 311.917 680.914 312.273 679.869 312.273ZM714.496 325.909L709.678 327.273C709.375 326.47 708.928 325.689 708.337 324.932C707.762 324.159 706.974 323.523 705.974 323.023C704.974 322.523 703.693 322.273 702.133 322.273C699.996 322.273 698.216 322.765 696.792 323.75C695.383 324.72 694.678 325.955 694.678 327.455C694.678 328.788 695.163 329.841 696.133 330.614C697.102 331.386 698.618 332.03 700.678 332.545L705.86 333.818C708.981 334.576 711.307 335.735 712.837 337.295C714.368 338.841 715.133 340.833 715.133 343.273C715.133 345.273 714.557 347.061 713.405 348.636C712.269 350.212 710.678 351.455 708.633 352.364C706.587 353.273 704.208 353.727 701.496 353.727C697.936 353.727 694.989 352.955 692.655 351.409C690.322 349.864 688.845 347.606 688.224 344.636L693.315 343.364C693.799 345.242 694.716 346.652 696.065 347.591C697.428 348.53 699.208 349 701.405 349C703.905 349 705.89 348.47 707.36 347.409C708.845 346.333 709.587 345.045 709.587 343.545C709.587 342.333 709.163 341.318 708.315 340.5C707.466 339.667 706.163 339.045 704.405 338.636L698.587 337.273C695.39 336.515 693.042 335.341 691.542 333.75C690.057 332.144 689.315 330.136 689.315 327.727C689.315 325.758 689.868 324.015 690.974 322.5C692.095 320.985 693.618 319.795 695.542 318.932C697.481 318.068 699.678 317.636 702.133 317.636C705.587 317.636 708.299 318.394 710.269 319.909C712.254 321.424 713.663 323.424 714.496 325.909ZM735.283 353.727C731.919 353.727 729.018 352.985 726.578 351.5C724.154 350 722.283 347.909 720.965 345.227C719.662 342.53 719.01 339.394 719.01 335.818C719.01 332.242 719.662 329.091 720.965 326.364C722.283 323.621 724.116 321.485 726.465 319.955C728.828 318.409 731.586 317.636 734.737 317.636C736.556 317.636 738.351 317.939 740.124 318.545C741.897 319.152 743.51 320.136 744.965 321.5C746.419 322.848 747.578 324.636 748.442 326.864C749.306 329.091 749.737 331.833 749.737 335.091V337.364H722.828V332.727H744.283C744.283 330.758 743.889 329 743.101 327.455C742.328 325.909 741.222 324.689 739.783 323.795C738.359 322.902 736.677 322.455 734.737 322.455C732.601 322.455 730.753 322.985 729.192 324.045C727.647 325.091 726.457 326.455 725.624 328.136C724.791 329.818 724.374 331.621 724.374 333.545V336.636C724.374 339.273 724.828 341.508 725.737 343.341C726.662 345.159 727.942 346.545 729.578 347.5C731.215 348.439 733.116 348.909 735.283 348.909C736.692 348.909 737.965 348.712 739.101 348.318C740.253 347.909 741.245 347.303 742.078 346.5C742.912 345.682 743.556 344.667 744.01 343.455L749.192 344.909C748.647 346.667 747.73 348.212 746.442 349.545C745.154 350.864 743.563 351.894 741.669 352.636C739.775 353.364 737.647 353.727 735.283 353.727Z" fill="#E5E5E5"/>
<path d="M511.828 103.752L479.494 159.764L511.828 166.9L544.267 159.894L511.828 103.752ZM511.815 161.537L487.738 156.222L511.815 114.514L535.97 156.318L511.815 161.536V161.537Z" fill="#E5E5E5"/>
<path d="M511.796 153.232L501.313 150.983L511.935 132.644L522.419 150.948L511.866 158.664L530.723 154.581L511.832 121.952L493.043 154.546L511.796 153.232Z" fill="#E5E5E5"/>
</g>
<defs>
<filter id="filter0_iiiif_3_704" x="-764.289" y="63.3112" width="1999.09" height="1999.09" filterUnits="userSpaceOnUse" color-interpolation-filters="sRGB">
<feFlood flood-opacity="0" result="BackgroundImageFix"/>
<feBlend mode="normal" in="SourceGraphic" in2="BackgroundImageFix" result="shape"/>
<feColorMatrix in="SourceAlpha" type="matrix" values="0 0 0 0 0 0 0 0 0 0 0 0 0 0 0 0 0 0 127 0" result="hardAlpha"/>
<feOffset/>
<feGaussianBlur stdDeviation="17.4691"/>
<feComposite in2="hardAlpha" operator="arithmetic" k2="-1" k3="1"/>
<feColorMatrix type="matrix" values="0 0 0 0 1 0 0 0 0 1 0 0 0 0 1 0 0 0 0.05 0"/>
<feBlend mode="normal" in2="shape" result="effect1_innerShadow_3_704"/>
<feColorMatrix in="SourceAlpha" type="matrix" values="0 0 0 0 0 0 0 0 0 0 0 0 0 0 0 0 0 0 127 0" result="hardAlpha"/>
<feOffset/>
<feGaussianBlur stdDeviation="34.9382"/>
<feComposite in2="hardAlpha" operator="arithmetic" k2="-1" k3="1"/>
<feColorMatrix type="matrix" values="0 0 0 0 1 0 0 0 0 1 0 0 0 0 1 0 0 0 0.1 0"/>
<feBlend mode="normal" in2="effect1_innerShadow_3_704" result="effect2_innerShadow_3_704"/>
<feColorMatrix in="SourceAlpha" type="matrix" values="0 0 0 0 0 0 0 0 0 0 0 0 0 0 0 0 0 0 127 0" result="hardAlpha"/>
<feOffset/>
<feGaussianBlur stdDeviation="52.4073"/>
<feComposite in2="hardAlpha" operator="arithmetic" k2="-1" k3="1"/>
<feColorMatrix type="matrix" values="0 0 0 0 1 0 0 0 0 1 0 0 0 0 1 0 0 0 0.2 0"/>
<feBlend mode="normal" in2="effect2_innerShadow_3_704" result="effect3_innerShadow_3_704"/>
<feColorMatrix in="SourceAlpha" type="matrix" values="0 0 0 0 0 0 0 0 0 0 0 0 0 0 0 0 0 0 127 0" result="hardAlpha"/>
<feOffset/>
<feGaussianBlur stdDeviation="69.8764"/>
<feComposite in2="hardAlpha" operator="arithmetic" k2="-1" k3="1"/>
<feColorMatrix type="matrix" values="0 0 0 0 1 0 0 0 0 1 0 0 0 0 1 0 0 0 0.3 0"/>
<feBlend mode="normal" in2="effect3_innerShadow_3_704" result="effect4_innerShadow_3_704"/>
<feGaussianBlur stdDeviation="290.144" result="effect5_foregroundBlur_3_704"/>
</filter>
<filter id="filter1_f_3_704" x="-358.692" y="23.447" width="1716.34" height="2078.82" filterUnits="userSpaceOnUse" color-interpolation-filters="sRGB">
<feFlood flood-opacity="0" result="BackgroundImageFix"/>
<feBlend mode="normal" in="SourceGraphic" in2="BackgroundImageFix" result="shape"/>
<feGaussianBlur stdDeviation="209.629" result="effect1_foregroundBlur_3_704"/>
</filter>
<filter id="filter2_f_3_704" x="-791.052" y="506.028" width="1912.65" height="1819.28" filterUnits="userSpaceOnUse" color-interpolation-filters="sRGB">
<feFlood flood-opacity="0" result="BackgroundImageFix"/>
<feBlend mode="normal" in="SourceGraphic" in2="BackgroundImageFix" result="shape"/>
<feGaussianBlur stdDeviation="209.629" result="effect1_foregroundBlur_3_704"/>
</filter>
<radialGradient id="paint0_radial_3_704" cx="0" cy="0" r="1" gradientUnits="userSpaceOnUse" gradientTransform="translate(516.938 1079.5) rotate(90) scale(601.254)">
<stop offset="0.87848" stop-color="white" stop-opacity="0"/>
<stop offset="1" stop-color="white"/>
</radialGradient>
<radialGradient id="paint1_radial_3_704" cx="0" cy="0" r="1" gradientUnits="userSpaceOnUse" gradientTransform="translate(516.938 1079.5) rotate(90) scale(437.275)">
<stop offset="0.832948" stop-color="white" stop-opacity="0"/>
<stop offset="1" stop-color="white"/>
</radialGradient>
<radialGradient id="paint2_radial_3_704" cx="0" cy="0" r="1" gradientUnits="userSpaceOnUse" gradientTransform="translate(516.939 1079.5) rotate(90) scale(273.297)">
<stop offset="0.465653" stop-color="white" stop-opacity="0"/>
<stop offset="1" stop-color="white"/>
</radialGradient>
<clipPath id="clip0_3_704">
<rect width="1023" height="1080" fill="white"/>
</clipPath>
<clipPath id="clip1_3_704">
<rect x="-184" y="643.6" width="838.517" height="838.517" rx="419.258" fill="white"/>
</clipPath>
</defs>
</svg>
